<?xml version="1.0" encoding="utf-8"?>
<!-- Generated by IcoMoon.io -->
<!DOCTYPE svg PUBLIC "-//W3C//DTD SVG 1.1//EN" "http://www.w3.org/Graphics/SVG/1.1/DTD/svg11.dtd">
<svg version="1.1" xmlns="http://www.w3.org/2000/svg" xmlns:xlink="http://www.w3.org/1999/xlink" width="32" height="32" viewBox="0 0 32 32">
<path fill="rgba(255, 255, 255, 0.5)" d="M31.511 16c0 8.567-6.944 15.511-15.511 15.511s-15.517-6.944-15.517-15.511 6.944-15.517 15.511-15.517 15.517 6.944 15.517 15.517zM15.994 2.267c-7.583 0-13.728 6.15-13.728 13.733s6.144 13.728 13.728 13.728 13.733-6.144 13.733-13.728-6.15-13.733-13.733-13.733z"></path>
<path fill="rgba(255, 255, 255, 0.5)" d="M18.75 11.761c0.278 0.317 0.756 0.344 1.072 0.067s0.344-0.756 0.067-1.072l-4.106-4.667c-0.006-0.006-0.011-0.011-0.017-0.017-0.022-0.022-0.044-0.044-0.072-0.067-0.017-0.011-0.028-0.028-0.044-0.039-0.028-0.022-0.056-0.033-0.089-0.050-0.017-0.006-0.028-0.017-0.044-0.022-0.039-0.017-0.072-0.028-0.111-0.039-0.011-0.006-0.022-0.006-0.033-0.011-0.050-0.011-0.106-0.017-0.156-0.017s-0.106 0.006-0.156 0.017c-0.011 0-0.022 0.006-0.033 0.011-0.039 0.011-0.078 0.022-0.111 0.039-0.017 0.006-0.028 0.017-0.044 0.022-0.028 0.017-0.061 0.033-0.089 0.050-0.017 0.011-0.028 0.022-0.044 0.039-0.022 0.022-0.050 0.039-0.072 0.067-0.006 0.006-0.011 0.011-0.017 0.017l-4.106 4.667c-0.278 0.317-0.244 0.794 0.067 1.072 0.317 0.278 0.794 0.244 1.072-0.067l2.772-3.15v16.933c0.117 0.006 0.233 0 0.35 0 0.4 0 0.789 0.061 1.172 0v-16.933l2.772 3.15z"></path>
<path fill="rgba(255, 255, 255, 0.5)" d="M15.983 25.539c0 0-0.033 0.422-0.761 0.422s-0.761-0.422-0.761-0.422l0.439-0.278 1.083 0.278z"></path>
<path fill="rgba(255, 255, 255, 0.5)" d="M22.689 23.661c-0.017 0-0.033 0-0.050 0-3.706-0.25-6.289-2.556-7.483-6.672-0.867-2.989-0.683-5.856-0.678-5.978 0.028-0.411 0.378-0.711 0.794-0.694 0.411 0.028 0.722 0.383 0.694 0.794-0.028 0.433-0.611 10.572 6.772 11.067 0.411 0.028 0.722 0.383 0.694 0.794-0.033 0.389-0.361 0.689-0.744 0.689z"></path>
</svg>
