<?xml version="1.0" encoding="utf-8"?>
<!-- Generated by IcoMoon.io -->
<!DOCTYPE svg PUBLIC "-//W3C//DTD SVG 1.1//EN" "http://www.w3.org/Graphics/SVG/1.1/DTD/svg11.dtd">
<svg version="1.1" xmlns="http://www.w3.org/2000/svg" xmlns:xlink="http://www.w3.org/1999/xlink" width="32" height="32" viewBox="0 0 32 32">
<path fill="#000" d="M16.057 0c-8.883 0-16.057 7.174-16.057 16.057s7.174 16.057 16.057 16.057c8.883 0 16.057-7.174 16.057-16.057s-7.288-16.057-16.057-16.057zM30.064 13.779l-2.505-1.367-2.619-3.53h3.416c0.797 1.594 1.367 3.189 1.708 4.897zM22.548 17.424l-4.669-3.872 5.58-4.555h0.456l2.847 3.872-4.214 4.555zM21.979 18.107l-4.214 6.263-7.858-0.797-0.342-6.605h0.114l7.402-2.961 0.114 0.114 4.783 3.986zM7.402 8.996h4.783l4.327 4.441-6.947 2.847-2.164-7.288zM17.31 12.868l-3.872-3.986h8.769l-4.897 3.986zM7.858 7.174c2.164-2.050 5.125-3.189 8.085-3.189s5.922 1.139 8.085 3.189h-16.171zM16.057 0.911c5.011 0 9.452 2.505 12.185 6.263h-1.708l-0.228-0.228c-2.619-2.961-6.377-4.669-10.249-4.669s-7.744 1.708-10.363 4.669l-0.228 0.228h-1.594c2.733-3.758 7.174-6.263 12.185-6.263zM3.758 8.996h2.733l2.278 7.516-6.605 2.505c-0.228-0.911-0.342-1.936-0.342-2.961 0-2.505 0.683-5.011 1.936-7.061zM2.391 19.815l6.491-2.505 0.228 6.605-2.391 2.847c-2.050-1.822-3.644-4.214-4.327-6.947zM7.402 27.331l2.278-2.847 7.972 0.797 2.505 4.327c-1.367 0.456-2.733 0.683-4.214 0.683-3.189-0.114-6.149-1.139-8.541-2.961zM21.068 29.267l-2.505-4.327 4.214-6.263 5.922 3.644c-1.594 3.189-4.327 5.694-7.63 6.947zM29.153 21.523l-5.808-3.53 3.986-4.555 2.847 1.594c0 0.342 0 0.797 0 1.139 0 1.822-0.342 3.644-1.025 5.352z"></path>
</svg>
