<?xml version="1.0" encoding="utf-8"?>
<!-- Generated by IcoMoon.io -->
<!DOCTYPE svg PUBLIC "-//W3C//DTD SVG 1.1//EN" "http://www.w3.org/Graphics/SVG/1.1/DTD/svg11.dtd">
<svg version="1.1" xmlns="http://www.w3.org/2000/svg" xmlns:xlink="http://www.w3.org/1999/xlink" width="71" height="32" viewBox="0 0 71 32">
<path fill="#000" d="M29.646 2.354l-10.755 12.808c-1.488-2.128-3.71-3.673-6.328-4.294 2.053-2.448 5.387-6.423 5.387-6.423 0.038-0.056 0.132-0.188 0.151-0.207 0.151-0.245 0.245-0.546 0.245-0.866 0-0.264-0.056-0.527-0.169-0.753-0.283-0.509-0.848-0.885-1.488-0.885h-13.052c-0.923 0-1.657 0.735-1.657 1.657s0.753 1.657 1.657 1.657h9.474c0 0-4.897 5.82-5.198 6.215-0.188 0.283-0.32 0.603-0.32 0.979 0 0.923 0.753 1.657 1.657 1.657h0.848c3.089 0 5.745 1.902 6.837 4.596 0.32 0.753 1.055 1.281 1.921 1.281s1.62-0.546 1.921-1.3c1.111-2.693 3.748-4.596 6.837-4.596 3.070 0 5.707 1.883 6.818 4.558 0.301 0.772 1.055 1.337 1.94 1.337s1.62-0.546 1.94-1.3v0c1.111-2.693 3.748-4.577 6.837-4.577 4.087 0 7.383 3.315 7.383 7.383 0 4.087-3.296 7.383-7.383 7.383-3.014 0-5.707-1.827-6.837-4.577-0.32-0.753-1.055-1.3-1.94-1.3s-1.639 0.546-1.94 1.337c-1.111 2.675-3.748 4.558-6.818 4.558-3.089 0-5.745-1.902-6.837-4.596-0.301-0.772-1.055-1.3-1.921-1.3s-1.62 0.527-1.921 1.281c-1.092 2.693-3.748 4.614-6.837 4.614-3.127 0-5.782-1.94-6.875-4.671-0.188-0.697-0.829-1.205-1.601-1.205-0.923 0-1.62 0.753-1.657 1.657-0.019 0.358 0.17 0.735 0.188 0.81 1.582 3.936 5.424 6.724 9.945 6.724 3.635 0 6.837-1.808 8.777-4.577 1.94 2.769 5.142 4.577 8.777 4.577s6.837-1.808 8.758-4.577c1.94 2.769 5.142 4.577 8.777 4.577 5.914 0 10.698-4.784 10.698-10.698s-4.784-10.698-10.698-10.698c-3.635 0-6.837 1.808-8.777 4.577-1.94-2.769-5.142-4.577-8.758-4.577-0.207 0-0.414 0-0.603 0.019 0.396-0.49 5.161-6.14 5.161-6.159 0.245-0.283 0.396-0.659 0.396-1.074 0-0.923-0.735-1.657-1.657-1.657-0.527 0-0.998 0.245-1.3 0.622z"></path>
<path fill="#000" d="M70.63 9.135c-0.075-0.075-0.169-0.113-0.283-0.113h-2.543c-0.075 0-0.132-0.038-0.169-0.094l-0.848-1.318c-0.245-0.396-0.622-0.622-0.998-0.622h-1.318l-0.433-0.678 1.469-0.527c0.433-0.151 0.716-0.565 0.697-1.017l-0.038-1.356c0-0.17 0.038-0.32 0.132-0.452l1.544-2.279c0.132-0.188 0.075-0.433-0.113-0.565-0.075-0.038-0.151-0.075-0.226-0.075-0.132 0-0.264 0.075-0.339 0.169l-1.544 2.279c-0.188 0.283-0.283 0.603-0.264 0.942l0.038 1.356c0 0.113-0.056 0.207-0.151 0.245l-1.639 0.603-0.433-0.678 0.396-0.151c0.603-0.207 1.036-0.791 1.036-1.469 0-0.866-0.697-1.563-1.563-1.563-0.207 0-0.396 0.038-0.565 0.113 0 0 0 0 0 0l-0.32 0.113v-1.488c0-0.226-0.188-0.414-0.414-0.414s-0.414 0.188-0.414 0.414v1.45l-0.32-0.113c0 0 0 0 0 0-0.169-0.075-0.358-0.113-0.565-0.113-0.866 0-1.563 0.697-1.563 1.563 0 0.678 0.433 1.262 1.036 1.469l0.396 0.151-0.433 0.678-1.639-0.603c-0.094-0.038-0.169-0.132-0.151-0.245l0.038-1.356c0.019-0.339-0.075-0.659-0.264-0.942l-1.544-2.279c-0.075-0.113-0.207-0.17-0.339-0.17-0.075 0-0.169 0.019-0.226 0.075-0.188 0.132-0.226 0.377-0.113 0.565l1.544 2.279c0.094 0.132 0.132 0.301 0.132 0.452l-0.038 1.356c-0.019 0.452 0.264 0.866 0.697 1.017l1.469 0.527-0.433 0.678h-1.318c-0.377 0-0.753 0.226-0.998 0.622l-0.848 1.318c-0.038 0.056-0.094 0.094-0.169 0.094h-2.562c-0.113 0-0.207 0.038-0.283 0.113s-0.113 0.188-0.113 0.283c0 0.226 0.188 0.414 0.414 0.414h2.543c0.339 0 0.659-0.169 0.848-0.452l0.848-1.318c0.113-0.17 0.245-0.264 0.32-0.264h0.772l-2.072 3.202c-0.377 0.565-0.716 1.243-0.339 2.091 0.038 0.094 0.094 0.188 0.132 0.283l0.019 0.038c0.169 0.32 0.49 0.527 0.829 0.527 0.226 0 0.452-0.075 0.64-0.245l1.168-0.961c0.32 0.716 0.772 1.356 1.337 1.902 0.056 0.056 0.075 0.132 0.038 0.207l-1.055 2.486c-0.038 0.094-0.038 0.207 0 0.301s0.113 0.169 0.207 0.226c0.056 0.019 0.113 0.038 0.188 0.038v0c0.151-0.019 0.283-0.113 0.339-0.245l1.055-2.486c0.151-0.377 0.075-0.81-0.226-1.092-0.546-0.527-0.961-1.149-1.243-1.846l0.584-0.49c0.32 0.848 0.904 1.563 1.639 2.072 0.735-0.509 1.318-1.224 1.639-2.072l0.584 0.49c-0.264 0.697-0.697 1.318-1.243 1.846-0.301 0.283-0.377 0.716-0.226 1.092l1.055 2.486c0.056 0.132 0.188 0.226 0.339 0.245v0c0.056 0 0.132 0 0.188-0.038 0.094-0.038 0.169-0.113 0.207-0.226 0.038-0.094 0.038-0.207 0-0.301l-1.055-2.486c-0.038-0.075-0.019-0.151 0.038-0.207 0.565-0.546 1.017-1.187 1.337-1.902l1.168 0.961c0.188 0.151 0.414 0.245 0.64 0.245 0.358 0 0.659-0.188 0.829-0.527l0.019-0.038c0.038-0.094 0.094-0.188 0.132-0.283 0.358-0.829 0.038-1.526-0.339-2.091l-2.072-3.202h0.772c0.075 0 0.207 0.075 0.32 0.264l0.848 1.318c0.188 0.283 0.49 0.452 0.848 0.452h2.543c0.226 0 0.414-0.188 0.414-0.414 0.056-0.075 0.019-0.169-0.056-0.245zM61.231 8.871c0 0.452-0.038 0.866-0.546 1.3l-3.503 2.882c-0.038 0.038-0.094 0.056-0.132 0.056-0.056 0-0.094-0.056-0.113-0.094l-0.019-0.038c-0.038-0.075-0.075-0.151-0.113-0.226-0.207-0.452-0.038-0.829 0.283-1.318l3.051-4.728c0.188 0.716 0.584 1.337 1.092 1.827v0.339zM66.373 11.433c0.32 0.471 0.471 0.866 0.283 1.318-0.038 0.075-0.075 0.151-0.113 0.226l-0.019 0.038c-0.019 0.038-0.056 0.094-0.113 0.094-0.038 0-0.075-0.019-0.132-0.056l-3.503-2.882c-0.509-0.414-0.546-0.829-0.546-1.3v-0.339c0.527-0.49 0.904-1.111 1.092-1.827l3.051 4.728z"></path>
</svg>
