<?xml version="1.0" encoding="utf-8"?>
<!-- Generated by IcoMoon.io -->
<!DOCTYPE svg PUBLIC "-//W3C//DTD SVG 1.1//EN" "http://www.w3.org/Graphics/SVG/1.1/DTD/svg11.dtd">
<svg version="1.1" xmlns="http://www.w3.org/2000/svg" xmlns:xlink="http://www.w3.org/1999/xlink" width="32" height="32" viewBox="0 0 32 32">
<path fill="#000" d="M32 16c0 8.8-7.2 16-16 16s-16-7.2-16-16 7.2-16 16-16 16 7.2 16 16zM16 1.829c-7.886 0-14.171 6.286-14.171 14.171s6.286 14.171 14.171 14.171 14.171-6.4 14.171-14.171-6.4-14.171-14.171-14.171z"></path>
<path fill="#000" d="M21.486 8.571h-10.971c-1.029 0-1.943 0.914-1.943 1.943v10.971c0 1.029 0.914 1.943 1.943 1.943h10.971c1.029 0 1.943-0.914 1.943-1.943v-10.971c0-1.143-0.914-1.943-1.943-1.943zM13.371 14.743c0.457-0.914 1.486-1.6 2.514-1.6s2.057 0.686 2.514 1.6c0.229 0.343 0.343 0.8 0.343 1.257 0 1.6-1.257 2.857-2.857 2.857s-2.857-1.257-2.857-2.857c0.114-0.457 0.229-0.914 0.343-1.257zM21.714 20.8c0 0.457-0.457 0.914-0.914 0.914h-9.714c-0.457 0-0.914-0.457-0.914-0.914v-5.943h1.257c0 0.343-0.114 0.686-0.114 1.143 0 2.514 2.057 4.571 4.571 4.571s4.571-2.057 4.571-4.571c0-0.457-0.114-0.8-0.114-1.257h1.371v6.057zM21.714 12.457c0 0.343-0.343 0.686-0.686 0.686h-1.486c-0.343 0-0.686-0.343-0.686-0.686v-1.6c0-0.343 0.343-0.686 0.686-0.686h1.486c0.343 0 0.686 0.343 0.686 0.686v1.6z"></path>
</svg>
