<?xml version="1.0" encoding="utf-8"?>
<!-- Generator: Adobe Illustrator 19.0.0, SVG Export Plug-In . SVG Version: 6.00 Build 0)  -->
<svg version="1.1" id="Layer_1" xmlns="http://www.w3.org/2000/svg" xmlns:xlink="http://www.w3.org/1999/xlink" x="0px" y="0px"
	 viewBox="0 0 1332.1 1047.8" enable-background="new 0 0 1332.1 1047.8" xml:space="preserve">
<metadata><?xpacket begin="﻿" id="W5M0MpCehiHzreSzNTczkc9d"?>
<x:xmpmeta xmlns:x="adobe:ns:meta/" x:xmptk="Adobe XMP Core 5.6-c067 79.157747, 2015/03/30-23:40:42        ">
   <rdf:RDF xmlns:rdf="http://www.w3.org/1999/02/22-rdf-syntax-ns#">
      <rdf:Description rdf:about=""/>
   </rdf:RDF>
</x:xmpmeta>
                                                                                                    
                                                                                                    
                                                                                                    
                                                                                                    
                                                                                                    
                                                                                                    
                                                                                                    
                                                                                                    
                                                                                                    
                                                                                                    
                                                                                                    
                                                                                                    
                                                                                                    
                                                                                                    
                                                                                                    
                                                                                                    
                                                                                                    
                                                                                                    
                                                                                                    
                                                                                                    
                           
<?xpacket end="w"?></metadata>
<rect id="XMLID_196_" x="-0.2" y="0" fill="#333333" width="1332.6" height="1047.8"/>
<g id="XMLID_155_">
	<polygon id="XMLID_153_" fill="#1D1D1E" points="1197.4,116.9 1283.5,97.2 1332.4,0 1152.4,0 	"/>
	<polygon id="XMLID_152_" fill="#1F2020" points="1283.5,97.2 1332.4,142 1332.4,0 	"/>
	<polygon id="XMLID_151_" fill="#292929" points="1268.3,234.6 1283.5,97.2 1197.4,116.9 1080.7,244.8 	"/>
	<polygon id="XMLID_150_" fill="#292827" points="1268.3,234.6 1332.4,248.5 1332.4,142 1283.5,97.2 	"/>
	<polygon id="XMLID_149_" fill="#2D2E2D" points="1080.7,244.8 1119.4,104.1 1197.4,116.9 	"/>
	<polygon id="XMLID_148_" fill="#282827" points="1197.4,116.9 1152.4,0 1043.5,0 1119.4,104.1 	"/>
	<polygon id="XMLID_147_" fill="#5A5C5C" points="371.3,253 365.5,340.3 566.8,365.8 	"/>
	<polygon id="XMLID_146_" fill="#292929" points="1332.4,697 1316.7,691.6 1249,879.1 1332.4,810.3 	"/>
	<polygon id="XMLID_145_" fill="#363435" points="1249,879.1 1163.4,720.7 1316.7,691.6 	"/>
	<polygon id="XMLID_144_" fill="#2D2C2C" points="1332.4,697 1316.7,691.6 1332.4,687.9 	"/>
	<polygon id="XMLID_143_" fill="#3A3A39" points="1316.7,691.6 1261.8,624.7 1163.4,720.7 	"/>
	<polygon id="XMLID_142_" fill="#302F2F" points="1316.7,691.6 1332.4,687.9 1332.4,631.5 1261.8,624.7 	"/>
	<polygon id="XMLID_141_" fill="#313131" points="1261.8,624.7 1332.4,631.5 1332.4,587.4 	"/>
	<polygon id="XMLID_140_" fill="#383939" points="1249,879.1 1146,810.3 1163.4,720.7 	"/>
	<polygon id="XMLID_139_" fill="#474747" points="1146,810.3 907.1,691.6 1163.4,720.7 	"/>
	<polygon id="XMLID_138_" fill="#4E4F4F" points="1163.4,720.7 1098,618.3 907.1,691.6 	"/>
	<polygon id="XMLID_137_" fill="#454647" points="1163.4,720.7 1261.8,624.7 1098,618.3 	"/>
	<polygon id="XMLID_136_" fill="#353634" points="1261.8,624.7 1332.4,587.4 1332.4,452.2 1300,442.2 	"/>
	<polygon id="XMLID_135_" fill="#464847" points="1261.8,624.7 1116.5,524.5 1098,618.3 	"/>
	<polygon id="XMLID_134_" fill="#3F3F3E" points="1261.8,624.7 1300,442.2 1116.5,524.5 	"/>
	<polygon id="XMLID_133_" fill="#5F6161" points="907.1,691.6 888.6,628.8 1098,618.3 	"/>
	<polygon id="XMLID_132_" fill="#4B4C4C" points="1146,810.3 988.1,852.1 907.1,691.6 	"/>
	<polygon id="XMLID_131_" fill="#585857" points="988.1,852.1 809.9,732 907.1,691.6 	"/>
	<polygon id="XMLID_130_" fill="#535554" points="988.1,852.1 795.5,867 809.9,732 	"/>
	<polygon id="XMLID_129_" fill="#676868" points="809.9,732 822,636.5 907.1,691.6 	"/>
	<polygon id="XMLID_128_" fill="#6A6968" points="907.1,691.6 888.6,628.8 822,636.5 	"/>
	<polygon id="XMLID_127_" fill="#555756" points="795.5,867 607.9,860.6 809.9,732 	"/>
	<polygon id="XMLID_126_" fill="#757576" points="822,636.5 765.9,498.6 888.6,628.8 	"/>
	<polygon id="XMLID_125_" fill="#717272" points="888.6,628.8 944.7,505.5 765.9,498.6 	"/>
	<polygon id="XMLID_124_" fill="#606162" points="888.6,628.8 1098,618.3 944.7,505.5 	"/>
	<polygon id="XMLID_123_" fill="#555655" points="1098,618.3 1116.5,524.5 944.7,505.5 	"/>
	<polygon id="XMLID_122_" fill="#313131" points="1300,442.2 1332.4,452.2 1332.4,424 	"/>
	<polygon id="XMLID_121_" fill="#313130" points="1300,442.2 1332.4,424 1332.4,333 1280.3,340.3 	"/>
	<polygon id="XMLID_120_" fill="#454546" points="1300,442.2 1126.4,357.2 1116.5,524.5 	"/>
	<polygon id="XMLID_119_" fill="#383938" points="1300,442.2 1126.4,357.2 1280.3,340.3 	"/>
	<polygon id="XMLID_118_" fill="#2B2C2B" points="1280.3,340.3 1332.4,333 1332.4,248.5 1268.3,234.6 	"/>
	<polygon id="XMLID_117_" fill="#333434" points="1280.3,340.3 1080.7,244.8 1268.3,234.6 	"/>
	<polygon id="XMLID_116_" fill="#424342" points="1126.4,357.2 1280.3,340.3 1080.7,244.8 	"/>
	<polygon id="XMLID_115_" fill="#4A4A4B" points="1004.7,221.8 988.1,391.3 1080.7,244.8 	"/>
	<polygon id="XMLID_114_" fill="#4A4A4B" points="988.1,391.3 1126.4,357.2 1080.7,244.8 	"/>
	<polygon id="XMLID_113_" fill="#545354" points="988.1,391.3 1116.5,524.5 1126.4,357.2 	"/>
	<polygon id="XMLID_112_" fill="#5A5C5C" points="988.1,391.3 944.7,505.5 1116.5,524.5 	"/>
	<polygon id="XMLID_111_" fill="#727171" points="765.9,498.6 789,376.7 944.7,505.5 	"/>
	<polygon id="XMLID_110_" fill="#676868" points="944.7,505.5 988.1,391.3 789,376.7 	"/>
	<polygon id="XMLID_109_" fill="#5D5E5E" points="789,376.7 988.1,391.3 1004.7,221.8 	"/>
	<polygon id="XMLID_108_" fill="#5B5B5B" points="789,376.7 799.4,237.5 1004.7,221.8 	"/>
	<polygon id="XMLID_107_" fill="#605F60" points="789,376.7 677.9,213.6 799.4,237.5 	"/>
	<polygon id="XMLID_106_" fill="#5D5F5E" points="607.9,860.6 554.7,775.3 809.9,732 	"/>
	<polygon id="XMLID_105_" fill="#717172" points="554.7,775.3 616,621.9 809.9,732 	"/>
	<polygon id="XMLID_104_" fill="#706F70" points="809.9,732 822,636.5 616,621.9 	"/>
	<polygon id="XMLID_103_" fill="#777777" points="616,621.9 822,636.5 765.9,498.6 	"/>
	<polygon id="XMLID_102_" fill="#808080" points="616,621.9 544.3,414.5 765.9,498.6 	"/>
	<polygon id="XMLID_101_" fill="#797979" points="544.3,414.5 765.9,498.6 789,376.7 566.8,365.8 	"/>
	<polygon id="XMLID_100_" fill="#626464" points="566.8,365.8 789,376.7 677.9,213.6 	"/>
	<polygon id="XMLID_99_" fill="#5E5F5F" points="566.8,365.8 371.3,253 677.9,213.6 	"/>
	<polygon id="XMLID_98_" fill="#6B6C6C" points="365.5,340.3 544.3,414.5 566.8,365.8 	"/>
	<polygon id="XMLID_97_" fill="#6E6C6C" points="365.5,340.3 444.7,524.5 544.3,414.5 	"/>
	<polygon id="XMLID_96_" fill="#797978" points="444.7,524.5 616,621.9 544.3,414.5 	"/>
	<polygon id="XMLID_95_" fill="#717272" points="395,602.8 616,621.9 444.7,524.5 	"/>
	<polygon id="XMLID_94_" fill="#6E6F6E" points="483.5,777.5 616,621.9 395,602.8 	"/>
	<polygon id="XMLID_93_" fill="#676868" points="483.5,777.5 554.7,775.3 616,621.9 	"/>
	<polygon id="XMLID_92_" fill="#5B5B5B" points="483.5,777.5 607.9,860.6 554.7,775.3 	"/>
	<polygon id="XMLID_91_" fill="#535352" points="483.5,777.5 365.5,857.1 607.9,860.6 	"/>
	<polygon id="XMLID_90_" fill="#4E4F4F" points="365.5,857.1 277.5,715.7 483.5,777.5 	"/>
	<polygon id="XMLID_89_" fill="#6A6A6A" points="277.5,715.7 483.5,777.5 395,602.8 	"/>
	<polygon id="XMLID_88_" fill="#5A5C5C" points="277.5,715.7 303.6,551.4 395,602.8 	"/>
	<polygon id="XMLID_87_" fill="#676868" points="303.6,551.4 395,602.8 444.7,524.5 	"/>
	<polygon id="XMLID_86_" fill="#5F6161" points="303.6,551.4 218.5,482.3 444.7,524.5 	"/>
	<polygon id="XMLID_85_" fill="#565656" points="218.5,482.3 444.7,524.5 248.6,379.9 	"/>
	<polygon id="XMLID_84_" fill="#5E5E5F" points="248.6,379.9 365.5,340.3 444.7,524.5 	"/>
	<polygon id="XMLID_83_" fill="#5D5E5F" points="154.3,691.6 277.5,715.7 303.6,551.4 	"/>
	<polygon id="XMLID_82_" fill="#4C4E4E" points="154.3,691.6 154.3,551.4 303.6,551.4 	"/>
	<polygon id="XMLID_81_" fill="#515050" points="154.3,551.4 303.6,551.4 218.5,482.3 	"/>
	<polygon id="XMLID_80_" fill="#424344" points="154.3,691.6 208.1,810.3 277.5,715.7 	"/>
	<polygon id="XMLID_79_" fill="#474647" points="208.1,810.3 365.5,857.1 277.5,715.7 	"/>
	<polygon id="XMLID_78_" fill="#3A3B3B" points="77,857.1 208.1,810.3 154.3,691.6 	"/>
	<polygon id="XMLID_77_" fill="#454546" points="154.3,551.4 96.4,473.6 218.5,482.3 	"/>
	<polygon id="XMLID_76_" fill="#4A4A4B" points="96.4,473.6 218.5,482.3 248.6,379.9 	"/>
	<polygon id="XMLID_75_" fill="#444244" points="96.4,473.6 154.3,329.9 248.6,379.9 	"/>
	<polygon id="XMLID_74_" fill="#545553" points="248.6,379.9 365.5,340.3 371.3,253 	"/>
	<polygon id="XMLID_73_" fill="#49494A" points="154.3,329.9 248.6,379.9 371.3,253 	"/>
	<polygon id="XMLID_72_" fill="#424242" points="154.3,329.9 198.2,237.5 371.3,253 	"/>
	<polygon id="XMLID_71_" fill="#525353" points="572.8,171 371.3,253 677.9,213.6 	"/>
	<polygon id="XMLID_70_" fill="#393937" points="198.2,237.5 145,175.2 154.3,329.9 	"/>
	<polygon id="XMLID_69_" fill="#333333" points="154.3,329.9 -0.2,245.2 -0.2,237.5 145,175.2 	"/>
	<polygon id="XMLID_68_" fill="#30302F" points="-0.2,245.2 -0.2,313.9 154.3,329.9 	"/>
	<polygon id="XMLID_67_" fill="#3A3838" points="-0.2,313.9 -0.2,397.6 96.4,473.6 154.3,329.9 	"/>
	<polygon id="XMLID_66_" fill="#333333" points="-0.2,397.6 -0.2,490.5 96.4,473.6 	"/>
	<polygon id="XMLID_65_" fill="#343433" points="-0.2,490.5 -0.2,539.1 96.4,473.6 	"/>
	<polygon id="XMLID_64_" fill="#3C3C3B" points="-0.2,539.1 -0.2,557.3 154.3,551.4 96.4,473.6 	"/>
	<polygon id="XMLID_63_" fill="#3D3E3E" points="-0.2,557.3 -0.2,582.8 154.3,691.6 154.3,551.4 	"/>
	<polygon id="XMLID_62_" fill="#343534" points="-0.2,582.8 -0.2,712.5 154.3,691.6 	"/>
	<polygon id="XMLID_61_" fill="#2D2E2D" points="-0.2,712.5 -0.2,789.8 77,857.1 154.3,691.6 	"/>
	<polygon id="XMLID_60_" fill="#272626" points="-0.2,789.8 -0.2,852.1 77,857.1 	"/>
	<polygon id="XMLID_59_" fill="#343433" points="1080.7,244.8 1004.7,221.8 972.1,83 1119.4,104.1 	"/>
	<polygon id="XMLID_58_" fill="#2D2D2C" points="1119.4,104.1 1043.5,0 993.3,0 972.1,83 	"/>
	<polygon id="XMLID_57_" fill="#3F3F3E" points="1004.7,221.8 972.1,83 864.5,24.2 855.3,153.3 	"/>
	<polygon id="XMLID_56_" fill="#4B4B4D" points="1004.7,221.8 855.3,153.3 765.9,187.5 799.4,237.5 	"/>
	<polygon id="XMLID_55_" fill="#555655" points="799.4,237.5 765.9,187.5 677.9,213.6 	"/>
	<polygon id="XMLID_54_" fill="#444444" points="855.3,153.3 765.9,187.5 864.5,24.2 	"/>
	<polygon id="XMLID_53_" fill="#302F2F" points="972.1,83 993.3,0 864.5,24.2 	"/>
	<polygon id="XMLID_52_" fill="#282727" points="145,175.2 58.3,123 -0.2,131.4 -0.2,237.5 	"/>
	<polygon id="XMLID_51_" fill="#231F20" points="58.3,123 92.1,0 -0.2,0 -0.2,131.4 	"/>
	<polygon id="XMLID_50_" fill="#4C4B4C" points="371.3,253 294.9,187.5 454.9,159 468,213.6 	"/>
	<polygon id="XMLID_49_" fill="#4E4D4E" points="572.8,171 677.9,139 677.9,213.6 	"/>
	<polygon id="XMLID_48_" fill="#2B2A2B" points="145,175.2 208.1,105.9 176.5,53.6 58.3,123 	"/>
	<polygon id="XMLID_47_" fill="#2F2D2D" points="864.5,24.2 771.7,0 993.3,0 	"/>
	<polygon id="XMLID_46_" fill="#3B3C3B" points="765.9,187.5 748.7,53.6 864.5,24.2 	"/>
	<polygon id="XMLID_45_" fill="#333333" points="748.7,53.6 666.1,33.7 748.7,0 771.7,0 864.5,24.2 	"/>
	<polygon id="XMLID_44_" fill="#4C4D4D" points="572.8,171 454.9,159 468,213.6 	"/>
	<polygon id="XMLID_43_" fill="#404141" points="294.9,187.5 145,175.2 198.2,237.5 371.3,253 	"/>
	<polygon id="XMLID_42_" fill="#333332" points="294.9,187.5 243,104.1 208.1,105.9 145,175.2 	"/>
	<polygon id="XMLID_41_" fill="#292929" points="243,104.1 286.8,0 264.9,0 176.5,53.6 208.1,105.9 	"/>
	<polygon id="XMLID_40_" fill="#424242" points="666.1,33.7 765.9,187.5 748.7,53.6 	"/>
	<polygon id="XMLID_39_" fill="#464748" points="765.9,187.5 677.9,139 666.1,33.7 	"/>
	<polygon id="XMLID_38_" fill="#343434" points="294.9,187.5 365.5,53.6 243,104.1 	"/>
	<polygon id="XMLID_37_" fill="#3E3E3E" points="454.9,159 365.5,53.6 294.9,187.5 	"/>
	<polygon id="XMLID_36_" fill="#3B3C3B" points="677.9,139 544.3,17.6 666.1,33.7 	"/>
	<polygon id="XMLID_35_" fill="#333332" points="748.7,0 666.1,33.7 544.3,17.6 430.1,0 	"/>
	<polygon id="XMLID_34_" fill="#454545" points="572.8,171 544.3,17.6 677.9,139 	"/>
	<polygon id="XMLID_33_" fill="#474747" points="544.3,17.6 454.9,159 572.8,171 	"/>
	<polygon id="XMLID_32_" fill="#393839" points="365.5,53.6 325.1,0 430.1,0 544.3,17.6 454.9,159 	"/>
	<polygon id="XMLID_31_" fill="#2D2E2D" points="325.1,0 286.8,0 243,104.1 365.5,53.6 	"/>
	<polygon id="XMLID_30_" fill="#515150" points="677.9,139 677.9,213.6 765.9,187.5 	"/>
	<polygon id="XMLID_29_" fill="#212020" points="58.3,123 176.5,53.6 264.9,0 92.1,0 	"/>
	<polygon id="XMLID_28_" fill="#4E4D4E" points="607.9,860.6 716,962.4 795.5,867 	"/>
	<polygon id="XMLID_27_" fill="#4A4A4B" points="365.5,857.1 530.4,911.5 607.9,860.6 	"/>
	<polygon id="XMLID_26_" fill="#3B3D3B" points="365.5,857.1 294.9,947.2 208.1,810.3 	"/>
	<polygon id="XMLID_25_" fill="#242424" points="77,857.1 -0.2,971.9 -0.2,852.1 	"/>
	<polygon id="XMLID_24_" fill="#333231" points="77,857.1 145,928.2 208.1,810.3 	"/>
	<polygon id="XMLID_23_" fill="#323130" points="145,928.2 294.9,947.2 208.1,810.3 	"/>
	<polygon id="XMLID_22_" fill="#302F2F" points="294.9,947.2 336.2,1047.8 395,1047.8 365.5,857.1 	"/>
	<polygon id="XMLID_21_" fill="#2A2928" points="336.2,1047.8 96.4,1047.8 145,928.2 294.9,947.2 	"/>
	<polygon id="XMLID_20_" fill="#232323" points="96.4,1047.8 145,928.2 77,857.1 -0.2,971.9 -0.2,1047.8 	"/>
	<polygon id="XMLID_19_" fill="#404141" points="454.9,988 376.5,928.2 365.5,857.1 530.4,911.5 	"/>
	<polygon id="XMLID_18_" fill="#232323" points="1249,879.1 1290.7,1000.3 1332.4,988 1332.4,810.3 	"/>
	<polygon id="XMLID_17_" fill="#1D1D1D" points="1332.4,1047.8 1332.4,988 1290.7,1000.3 1163.4,988 1240.1,1047.8 	"/>
	<polygon id="XMLID_16_" fill="#2A2A2A" points="1163.4,988 1146,810.3 1249,879.1 1290.7,1000.3 	"/>
	<polygon id="XMLID_15_" fill="#353635" points="1163.4,988 1116.5,1000.3 988.1,852.1 1146,810.3 	"/>
	<polygon id="XMLID_14_" fill="#424343" points="972.1,947.2 988.1,852.1 795.5,867 	"/>
	<polygon id="XMLID_13_" fill="#474746" points="972.1,947.2 716,962.4 795.5,867 	"/>
	<polygon id="XMLID_12_" fill="#454445" points="716,962.4 454.9,988 530.4,911.5 607.9,860.6 	"/>
	<polygon id="XMLID_11_" fill="#363534" points="454.9,988 421.6,1047.8 395,1047.8 376.5,928.2 	"/>
	<polygon id="XMLID_10_" fill="#30302F" points="454.9,988 655.1,1026.9 655.1,1047.8 421.6,1047.8 	"/>
	<polygon id="XMLID_9_" fill="#383939" points="716,962.4 655.1,1026.9 454.9,988 	"/>
	<polygon id="XMLID_8_" fill="#3A3B3B" points="716,962.4 844,988 972.1,947.2 	"/>
	<polygon id="XMLID_7_" fill="#373636" points="844,988 748.7,1047.8 655.1,1047.8 655.1,1026.9 716,962.4 	"/>
	<polygon id="XMLID_6_" fill="#232323" points="1098,1047.8 1116.5,1000.3 1163.4,988 1240.1,1047.8 	"/>
	<polygon id="XMLID_5_" fill="#3C3C3B" points="1116.5,1000.3 972.1,947.2 988.1,852.1 	"/>
	<polygon id="XMLID_4_" fill="#282827" points="972.1,947.2 944.7,1005.1 988.1,1047.8 1098,1047.8 1116.5,1000.3 	"/>
	<polygon id="XMLID_3_" fill="#343433" points="944.7,1005.1 844,988 972.1,947.2 	"/>
	<polygon id="XMLID_2_" fill="#2D2C2C" points="988.1,1047.8 944.7,1005.1 864.5,1047.8 	"/>
	<polygon id="XMLID_1_" fill="#333231" points="944.7,1005.1 844,988 748.7,1047.8 864.5,1047.8 	"/>
</g>
<rect id="XMLID_194_" x="-0.2" y="0" opacity="0.5" width="1332.6" height="1047.8"/>
</svg>
