<?xml version="1.0" encoding="utf-8"?>
<!-- Generated by IcoMoon.io -->
<!DOCTYPE svg PUBLIC "-//W3C//DTD SVG 1.1//EN" "http://www.w3.org/Graphics/SVG/1.1/DTD/svg11.dtd">
<svg version="1.1" xmlns="http://www.w3.org/2000/svg" xmlns:xlink="http://www.w3.org/1999/xlink" width="32" height="32" viewBox="0 0 32 32">
<path fill="#000" d="M16.057 0c-8.883 0-16.057 7.174-16.057 16.057s7.174 16.057 16.057 16.057 16.057-7.174 16.057-16.057-7.288-16.057-16.057-16.057zM16.057 30.178c-7.858 0-14.121-6.377-14.121-14.121s6.263-14.235 14.121-14.235 14.121 6.377 14.121 14.121-6.377 14.235-14.121 14.235z"></path>
<path fill="#000" d="M24.712 16.057l-0.683-0.114c0-1.139-0.228-2.164-0.683-3.189l0.569-0.342c0.342-0.228 0.456-0.797 0.228-1.139l-0.797-1.139c-0.228-0.342-0.797-0.456-1.139-0.228l-0.569 0.342c-0.797-0.797-1.708-1.367-2.733-1.708l0.114-0.797c0.114-0.456-0.228-0.911-0.683-0.911l-1.253-0.342c-0.456-0.114-0.911 0.228-0.911 0.683l-0.228 0.797c-1.139 0-2.164 0.228-3.189 0.683l-0.342-0.569c-0.228-0.342-0.797-0.456-1.139-0.228l-1.139 0.797c-0.342 0.228-0.456 0.797-0.228 1.139l0.342 0.569c-0.797 0.797-1.367 1.708-1.708 2.733l-0.683-0.114c-0.456-0.114-0.911 0.228-0.911 0.683l-0.228 1.367c-0.114 0.456 0.114 0.797 0.569 0.911l0.683 0.114c0 1.139 0.228 2.164 0.683 3.189l-0.569 0.342c-0.342 0.228-0.456 0.797-0.228 1.139l0.797 1.139c0.228 0.342 0.797 0.456 1.139 0.228l0.569-0.342c0.797 0.797 1.708 1.367 2.733 1.708l-0.114 0.797c-0.114 0.456 0.228 0.911 0.683 0.911l1.367 0.228c0.456 0.114 0.911-0.228 0.911-0.683l0.114-0.797c1.139 0 2.164-0.228 3.189-0.683l0.342 0.569c0.228 0.342 0.797 0.456 1.139 0.228l1.139-0.797c0.342-0.228 0.456-0.797 0.228-1.139l-0.342-0.456c0.797-0.797 1.367-1.708 1.708-2.733l0.683 0.114c0.456 0.114 0.911-0.228 0.911-0.683l0.228-1.367c0.228-0.342-0.114-0.797-0.569-0.911zM16.057 20.27c-2.391 0-4.327-1.936-4.327-4.327s1.936-4.327 4.327-4.327 4.327 1.936 4.327 4.327c-0.114 2.505-1.936 4.327-4.327 4.327z"></path>
</svg>
