<?xml version="1.0" encoding="utf-8"?>
<!-- Generated by IcoMoon.io -->
<!DOCTYPE svg PUBLIC "-//W3C//DTD SVG 1.1//EN" "http://www.w3.org/Graphics/SVG/1.1/DTD/svg11.dtd">
<svg version="1.1" xmlns="http://www.w3.org/2000/svg" xmlns:xlink="http://www.w3.org/1999/xlink" width="32" height="32" viewBox="0 0 32 32">
<path fill="#000" d="M4.669 27.331c-6.263-6.263-6.263-16.399 0-22.662s16.399-6.263 22.662 0c6.263 6.263 6.263 16.399 0 22.662s-16.399 6.263-22.662 0zM26.078 26.078c5.58-5.58 5.58-14.463 0-20.043s-14.576-5.58-20.043 0-5.58 14.463 0 20.043 14.463 5.466 20.043 0z"></path>
<path fill="#000" d="M20.043 15.26h-8.085c-0.569 0-0.911-0.456-0.911-0.911v-5.58c0-0.569 0.456-0.911 0.911-0.911h8.085c0.569 0 0.911 0.456 0.911 0.911v5.58c0.114 0.569-0.342 0.911-0.911 0.911z"></path>
<path fill="#000" d="M20.043 24.256h-8.085c-0.569 0-0.911-0.456-0.911-0.911v-5.58c0-0.569 0.456-0.911 0.911-0.911h8.085c0.569 0 0.911 0.456 0.911 0.911v5.58c0.114 0.456-0.342 0.911-0.911 0.911z"></path>
<path fill="#000" d="M8.769 24.256v0c-0.569 0-0.911-0.456-0.911-0.911v-14.576c0-0.569 0.456-0.911 0.911-0.911v0c0.569 0 0.911 0.456 0.911 0.911v14.576c0 0.456-0.456 0.911-0.911 0.911z"></path>
<path fill="#000" d="M23.345 24.256v0c-0.569 0-0.911-0.456-0.911-0.911v-14.576c0-0.569 0.456-0.911 0.911-0.911v0c0.569 0 0.911 0.456 0.911 0.911v14.576c0 0.456-0.456 0.911-0.911 0.911z"></path>
</svg>
